<svg width="22" height="9" viewBox="0 0 22 9" fill="none" xmlns="http://www.w3.org/2000/svg">
<path fill-rule="evenodd" clip-rule="evenodd" d="M10.98 6.59396C9.64002 8.37296 7.42802 9.22596 5.32002 8.94796C2.93702 8.63396 0.774017 6.89796 0.0260165 3.69996C-0.0170129 3.51592 -0.00700549 3.32345 0.0548789 3.14487C0.116763 2.96628 0.22799 2.80889 0.375669 2.69094C0.523347 2.57298 0.70143 2.49929 0.889276 2.47841C1.07712 2.45753 1.26704 2.49031 1.43702 2.57296C3.53002 3.58896 5.47102 2.50896 7.09102 1.21796C7.81902 0.637956 8.62602 0.354956 9.43002 0.449956C10.05 0.522956 10.576 0.810956 10.98 1.21096C11.385 0.810956 11.91 0.522956 12.531 0.449956C13.335 0.354956 14.142 0.637956 14.871 1.21796C16.49 2.50896 18.431 3.58896 20.524 2.57296C20.694 2.49059 20.8837 2.45803 21.0714 2.47905C21.2591 2.50006 21.437 2.57379 21.5845 2.6917C21.732 2.80961 21.8431 2.96688 21.905 3.14531C21.9668 3.32374 21.9769 3.51604 21.934 3.69996C21.187 6.89796 19.024 8.63396 16.641 8.94796C14.533 9.22596 12.321 8.37296 10.981 6.59396H10.98ZM9.63302 5.01496C8.79302 6.44296 7.15302 7.17196 5.58202 6.96496C4.48902 6.82196 3.38402 6.21296 2.64202 4.95896C5.02202 5.16796 7.05002 3.80896 8.33802 2.78196C8.75302 2.45196 9.04202 2.41796 9.19502 2.43596C9.80902 2.50796 9.97402 3.34596 9.98002 3.83696C9.96711 4.25286 9.84763 4.65847 9.63302 5.01496ZM11.981 3.83696C11.989 4.20396 12.09 4.61096 12.328 5.01496C13.168 6.44296 14.808 7.17196 16.38 6.96496C17.472 6.82196 18.577 6.21296 19.32 4.95896C16.938 5.16796 14.91 3.80896 13.623 2.78196C13.208 2.45196 12.92 2.41796 12.766 2.43596C12.152 2.50796 11.987 3.34596 11.98 3.83696H11.981Z" fill="white"/>
</svg>
