<svg width="24" height="24" viewBox="0 0 24 24" fill="none" xmlns="http://www.w3.org/2000/svg">
<path d="M4.09533 9.47453C3.91181 11.2424 3.72877 13.0186 3.55528 14.7025L6.15975 12.3931L9.26845 1.07275C5.66414 1.35546 4.48533 7.16828 4.09533 9.47453ZM3.55528 14.7025L3.55519 14.7025L3.55528 14.7026V14.7025V14.7025ZM2.47777 1.29293L1.67039 1.53808C2.10136 2.95825 2.85127 4.29827 4.14047 5.24336C4.23084 4.96513 4.3311 4.69021 4.44103 4.41911C3.43603 3.61614 2.85169 2.52513 2.47781 1.29302L2.47777 1.29293ZM2.14369 4.84474L1.497 5.38666C2.19731 6.25361 2.6655 7.03183 3.57122 7.54774C3.62604 7.25492 3.68613 6.9631 3.75145 6.67244C3.07223 6.19099 2.59917 5.39355 2.14369 4.84474ZM15.7474 5.04105L12.5432 7.88969C11.3237 7.26785 9.9682 6.41585 8.8583 6.02322C8.75995 6.28793 8.68252 6.5583 8.60798 6.83027C9.63984 7.26452 10.7211 7.83916 11.6636 8.36313C12.9548 9.05627 14.2242 9.7518 15.2819 10.5747C15.6225 10.8046 15.9621 11.0403 16.2967 11.2825C17.967 12.4911 19.5142 13.8423 20.4657 15.154C21.4172 16.4658 21.7577 17.655 21.2248 18.7305L21.9807 19.1051C22.6904 17.6731 22.192 16.097 21.1487 14.6587C20.1053 13.2204 18.5018 11.8368 16.7913 10.5989C16.1882 10.1625 15.5719 9.74552 14.962 9.35243C16.1216 7.62897 16.3676 6.02496 15.7474 5.04105ZM8.22966 8.20943L8.00545 9.02693C9.75858 9.78832 11.6178 10.7281 13.1846 11.7852C13.3809 11.9197 13.5749 12.0576 13.7663 12.199C14.8305 12.9863 15.7809 13.8665 16.3926 14.7616C17.0043 15.6566 17.2737 16.5355 17.0754 17.4073C16.8184 18.5373 16.9695 19.3973 17.4136 19.982C17.8576 20.5667 18.5335 20.8268 19.181 20.934C19.7195 21.0231 21.0727 21.166 21.7717 22.7441L22.5432 22.4024C21.6792 20.452 19.7925 20.18 19.3189 20.1016C18.7956 20.0149 18.3502 19.8202 18.0855 19.4717C17.8208 19.1232 17.6758 18.5717 17.8981 17.5945C18.1611 16.4384 17.7837 15.3016 17.0892 14.2855C16.3948 13.2694 15.3797 12.343 14.2681 11.5207C14.0383 11.3509 13.8051 11.1858 13.5688 11.0253C13.6915 10.9021 13.8117 10.7764 13.9293 10.6483C13.1057 10.1069 12.1713 9.59711 11.207 9.0776L10.8412 9.40282C9.79392 8.85593 8.86097 8.44689 8.22966 8.20938V8.20943ZM9.49786 10.5971C7.47539 12.3985 5.44987 14.1959 3.42333 15.9926C3.42291 15.9963 3.42253 15.9966 3.42216 16.0004L3.15905 16.2333L2.23012 15.2122L2.22792 15.2157C1.87837 14.8285 1.38347 14.6023 0.84375 14.5225V15.4098C1.2292 15.4901 1.51528 15.675 1.68337 15.943C1.90195 16.2915 1.90903 16.7615 1.67686 17.2938C1.59956 17.471 1.49442 17.6512 1.36542 17.8285L0.84375 18.2924V19.5022C0.948375 19.4335 1.04939 19.3616 1.14656 19.2875L10.7501 13.2466C11.3009 12.8994 11.8067 12.5402 12.2704 12.1741C11.3908 11.5521 10.4036 11.1614 9.49786 10.5971V10.5971ZM12.9024 14.141L12.2152 14.6304C12.5591 15.1135 13.0224 15.5481 13.2619 15.9859C13.5013 16.4237 13.5844 16.7797 13.169 17.3941C12.8326 17.8916 12.3305 18.7377 12.4162 19.6766C12.4591 20.146 12.6813 20.6342 13.1273 21.0061C13.5733 21.378 14.218 21.6425 15.1218 21.7918L15.2594 20.9593C14.4519 20.8259 13.9538 20.5968 13.6676 20.3581C13.3815 20.1195 13.2821 19.8803 13.2565 19.5999C13.2052 19.039 13.5782 18.2951 13.868 17.8667C14.431 17.0339 14.3361 16.1918 14.002 15.581C13.668 14.9703 13.1624 14.5061 12.9024 14.141ZM10.9509 15.5595L10.1078 15.593C10.0785 16.8926 10.2406 19.1585 9.2235 20.1542L9.66239 20.8748C10.9489 19.8737 10.992 16.8859 10.9509 15.5595ZM5.60395 17.6288C4.83145 17.8128 3.82711 18.6302 3.10448 19.0845L2.96166 20.4763C2.93353 20.6203 2.91056 20.7677 2.89472 20.9176C2.80852 21.7361 2.92167 22.5118 3.19959 23.1561H4.18495C4.15559 23.1097 4.12784 23.0624 4.10175 23.014C3.84591 22.538 3.70284 21.8773 3.75253 21.1581L4.17206 19.631C4.27364 19.437 4.38872 19.2628 4.51345 19.1151C5.36719 18.2323 6.21905 18.3372 6.77658 19.3431C7.04986 19.852 7.19536 20.5694 7.11347 21.3463C7.03669 22.0748 6.77606 22.7134 6.43519 23.1561H7.47206C7.73841 22.6574 7.91784 22.0723 7.98469 21.4378C8.08331 20.5008 7.92094 19.62 7.54908 18.9281C7.00814 18.1977 6.39061 17.6248 5.60395 17.6288Z" fill="white"/>
</svg>
